<svg width="500" height="500" viewBox="0 0 500 500" fill="none" xmlns="http://www.w3.org/2000/svg">
  <!-- Background -->
  <rect width="500" height="500" fill="#F8F9FA"/>
  
  <!-- Resume Paper -->
  <rect x="100" y="50" width="300" height="400" rx="8" fill="white" stroke="#DEE2E6" stroke-width="2"/>
  
  <!-- Header Section -->
  <rect x="120" y="80" width="260" height="60" rx="4" fill="#E9ECEF"/>
  <rect x="140" y="100" width="120" height="20" rx="4" fill="#4361EE"/>
  <rect x="140" y="130" width="220" height="10" rx="2" fill="#ADB5BD"/>
  
  <!-- Content Sections -->
  <rect x="120" y="160" width="260" height="20" rx="4" fill="#4361EE"/>
  <rect x="120" y="190" width="260" height="10" rx="2" fill="#DEE2E6"/>
  <rect x="120" y="210" width="260" height="10" rx="2" fill="#DEE2E6"/>
  <rect x="120" y="230" width="200" height="10" rx="2" fill="#DEE2E6"/>
  
  <rect x="120" y="260" width="260" height="20" rx="4" fill="#4361EE"/>
  <rect x="120" y="290" width="260" height="10" rx="2" fill="#DEE2E6"/>
  <rect x="120" y="310" width="260" height="10" rx="2" fill="#DEE2E6"/>
  <rect x="120" y="330" width="200" height="10" rx="2" fill="#DEE2E6"/>
  
  <rect x="120" y="360" width="260" height="20" rx="4" fill="#4361EE"/>
  <rect x="120" y="390" width="60" height="20" rx="4" fill="#4CC9F0"/>
  <rect x="190" y="390" width="60" height="20" rx="4" fill="#4CC9F0"/>
  <rect x="260" y="390" width="60" height="20" rx="4" fill="#4CC9F0"/>
  
  <!-- Decorative Elements -->
  <circle cx="420" cy="100" r="30" fill="#4361EE" fill-opacity="0.2"/>
  <circle cx="80" cy="400" r="40" fill="#4CC9F0" fill-opacity="0.2"/>
  <circle cx="450" cy="350" r="20" fill="#4361EE" fill-opacity="0.3"/>
  <circle cx="50" cy="150" r="25" fill="#4CC9F0" fill-opacity="0.3"/>
  
  <!-- Pencil -->
  <rect x="380" y="180" width="80" height="15" rx="2" transform="rotate(45 380 180)" fill="#FFC107"/>
  <rect x="390" y="170" width="40" height="15" rx="2" transform="rotate(45 390 170)" fill="#E9ECEF"/>
  <polygon points="370,190 380,180 385,185 375,195" fill="#495057"/>
</svg> 