<svg width="300" height="400" viewBox="0 0 300 400" fill="none" xmlns="http://www.w3.org/2000/svg">
  <!-- Background -->
  <rect width="300" height="400" fill="#FFFFFF"/>
  
  <!-- Resume Paper -->
  <rect x="20" y="20" width="260" height="360" rx="4" fill="white" stroke="#DEE2E6" stroke-width="1"/>
  
  <!-- Header Section - Creative template has full-width colored header -->
  <rect x="20" y="20" width="260" height="80" rx="4" fill="#6200ea"/>
  <rect x="40" y="40" width="120" height="16" rx="2" fill="white"/>
  <rect x="40" y="65" width="80" height="8" rx="1" fill="#f5f5f5"/>
  
  <!-- Contact Info - Creative has horizontal layout in header -->
  <rect x="40" y="80" width="40" height="8" rx="4" fill="#00bfa5"/>
  <rect x="90" y="80" width="40" height="8" rx="4" fill="#00bfa5"/>
  <rect x="140" y="80" width="40" height="8" rx="4" fill="#00bfa5"/>
  <rect x="190" y="80" width="40" height="8" rx="4" fill="#00bfa5"/>
  
  <!-- Summary Section with creative styling -->
  <rect x="40" y="120" width="100" height="12" rx="20" fill="#6200ea"/>
  <rect x="40" y="140" width="220" height="6" rx="1" fill="#424242"/>
  <rect x="40" y="150" width="220" height="6" rx="1" fill="#424242"/>
  <rect x="40" y="160" width="180" height="6" rx="1" fill="#424242"/>
  
  <!-- Experience Section with creative styling -->
  <rect x="40" y="180" width="100" height="12" rx="20" fill="#6200ea"/>
  
  <!-- Experience Item 1 with background -->
  <rect x="40" y="200" width="220" height="50" rx="4" fill="#f5f5f5"/>
  <rect x="50" y="210" width="80" height="8" rx="1" fill="#424242"/>
  <rect x="50" y="222" width="120" height="6" rx="1" fill="#00bfa5"/>
  <rect x="180" y="222" width="60" height="6" rx="1" fill="#424242"/>
  <rect x="50" y="232" width="190" height="4" rx="1" fill="#424242"/>
  
  <!-- Experience Item 2 with background -->
  <rect x="40" y="260" width="220" height="50" rx="4" fill="#f5f5f5"/>
  <rect x="50" y="270" width="80" height="8" rx="1" fill="#424242"/>
  <rect x="50" y="282" width="120" height="6" rx="1" fill="#00bfa5"/>
  <rect x="180" y="282" width="60" height="6" rx="1" fill="#424242"/>
  <rect x="50" y="292" width="190" height="4" rx="1" fill="#424242"/>
  
  <!-- Skills Section with creative styling -->
  <rect x="40" y="320" width="100" height="12" rx="20" fill="#6200ea"/>
  
  <!-- Skills Items - Creative has pill-shaped skill items -->
  <rect x="40" y="340" width="60" height="20" rx="10" fill="#00bfa5"/>
  <rect x="110" y="340" width="60" height="20" rx="10" fill="#00bfa5"/>
  <rect x="180" y="340" width="60" height="20" rx="10" fill="#00bfa5"/>
  <rect x="40" y="370" width="70" height="20" rx="10" fill="#00bfa5"/>
  <rect x="120" y="370" width="70" height="20" rx="10" fill="#00bfa5"/>
  
  <!-- Decorative elements -->
  <circle cx="260" cy="40" r="10" fill="#f50057"/>
  <circle cx="30" cy="380" r="5" fill="#f50057"/>
</svg> 