<svg width="300" height="400" viewBox="0 0 300 400" fill="none" xmlns="http://www.w3.org/2000/svg">
  <!-- Background -->
  <rect width="300" height="400" fill="#FFFFFF"/>
  
  <!-- Resume Paper -->
  <rect x="20" y="20" width="260" height="360" rx="4" fill="white" stroke="#DEE2E6" stroke-width="1"/>
  
  <!-- Header Section - Simple template has minimal header -->
  <rect x="40" y="40" width="220" height="40" rx="0" fill="white"/>
  <rect x="40" y="40" width="120" height="16" rx="0" fill="#455a64"/>
  <rect x="40" y="65" width="220" height="1" rx="0" fill="#607d8b"/>
  
  <!-- Contact Info - Simple has subtle styling -->
  <rect x="40" y="75" width="40" height="8" rx="0" fill="#607d8b"/>
  <rect x="90" y="75" width="40" height="8" rx="0" fill="#607d8b"/>
  <rect x="140" y="75" width="40" height="8" rx="0" fill="#607d8b"/>
  <rect x="190" y="75" width="40" height="8" rx="0" fill="#607d8b"/>
  
  <!-- Summary Section with simple styling -->
  <rect x="40" y="110" width="100" height="10" rx="0" fill="#455a64"/>
  <rect x="40" y="125" width="220" height="1" rx="0" fill="#607d8b"/>
  <rect x="40" y="135" width="220" height="6" rx="0" fill="#212121"/>
  <rect x="40" y="145" width="220" height="6" rx="0" fill="#212121"/>
  <rect x="40" y="155" width="180" height="6" rx="0" fill="#212121"/>
  
  <!-- Experience Section with simple styling -->
  <rect x="40" y="180" width="100" height="10" rx="0" fill="#455a64"/>
  <rect x="40" y="195" width="220" height="1" rx="0" fill="#607d8b"/>
  
  <!-- Experience Item 1 -->
  <rect x="40" y="205" width="80" height="8" rx="0" fill="#455a64"/>
  <rect x="40" y="217" width="120" height="6" rx="0" fill="#607d8b"/>
  <rect x="180" y="217" width="60" height="6" rx="0" fill="#212121"/>
  <rect x="40" y="227" width="220" height="4" rx="0" fill="#212121"/>
  <rect x="40" y="235" width="220" height="4" rx="0" fill="#212121"/>
  
  <!-- Experience Item 2 -->
  <rect x="40" y="250" width="80" height="8" rx="0" fill="#455a64"/>
  <rect x="40" y="262" width="120" height="6" rx="0" fill="#607d8b"/>
  <rect x="180" y="262" width="60" height="6" rx="0" fill="#212121"/>
  <rect x="40" y="272" width="220" height="4" rx="0" fill="#212121"/>
  
  <!-- Skills Section with simple styling -->
  <rect x="40" y="290" width="100" height="10" rx="0" fill="#455a64"/>
  <rect x="40" y="305" width="220" height="1" rx="0" fill="#607d8b"/>
  
  <!-- Skills Items - Simple has underlined skill items -->
  <rect x="40" y="315" width="60" height="8" rx="0" fill="#212121"/>
  <rect x="40" y="325" width="60" height="2" rx="0" fill="#ff9800"/>
  
  <rect x="110" y="315" width="60" height="8" rx="0" fill="#212121"/>
  <rect x="110" y="325" width="60" height="2" rx="0" fill="#ff9800"/>
  
  <rect x="180" y="315" width="60" height="8" rx="0" fill="#212121"/>
  <rect x="180" y="325" width="60" height="2" rx="0" fill="#ff9800"/>
  
  <rect x="40" y="345" width="70" height="8" rx="0" fill="#212121"/>
  <rect x="40" y="355" width="70" height="2" rx="0" fill="#ff9800"/>
  
  <rect x="120" y="345" width="70" height="8" rx="0" fill="#212121"/>
  <rect x="120" y="355" width="70" height="2" rx="0" fill="#ff9800"/>
</svg> 