<svg width="300" height="400" viewBox="0 0 300 400" fill="none" xmlns="http://www.w3.org/2000/svg">
  <!-- Background -->
  <rect width="300" height="400" fill="#F8F9FA"/>
  
  <!-- Resume Paper -->
  <rect x="20" y="20" width="260" height="360" rx="4" fill="white" stroke="#DEE2E6" stroke-width="1"/>
  
  <!-- Header Section - Professional template has centered header -->
  <rect x="40" y="40" width="220" height="60" rx="2" fill="#F8F9FA"/>
  <rect x="90" y="50" width="120" height="16" rx="2" fill="#2c3e50"/>
  <rect x="70" y="75" width="160" height="8" rx="1" fill="#ADB5BD"/>
  
  <!-- Contact Info - Professional has centered contact info -->
  <rect x="60" y="90" width="40" height="8" rx="1" fill="#3498db"/>
  <rect x="110" y="90" width="40" height="8" rx="1" fill="#3498db"/>
  <rect x="160" y="90" width="40" height="8" rx="1" fill="#3498db"/>
  <rect x="210" y="90" width="30" height="8" rx="1" fill="#3498db"/>
  
  <!-- Summary Section -->
  <rect x="40" y="120" width="100" height="12" rx="2" fill="#2c3e50"/>
  <rect x="40" y="140" width="220" height="6" rx="1" fill="#ADB5BD"/>
  <rect x="40" y="150" width="220" height="6" rx="1" fill="#ADB5BD"/>
  <rect x="40" y="160" width="180" height="6" rx="1" fill="#ADB5BD"/>
  
  <!-- Experience Section -->
  <rect x="40" y="180" width="100" height="12" rx="2" fill="#2c3e50"/>
  
  <!-- Experience Item 1 -->
  <rect x="40" y="200" width="80" height="8" rx="1" fill="#333333"/>
  <rect x="40" y="212" width="120" height="6" rx="1" fill="#3498db"/>
  <rect x="200" y="212" width="60" height="6" rx="1" fill="#ADB5BD"/>
  <rect x="40" y="222" width="220" height="4" rx="1" fill="#ADB5BD"/>
  <rect x="40" y="230" width="220" height="4" rx="1" fill="#ADB5BD"/>
  <rect x="40" y="238" width="180" height="4" rx="1" fill="#ADB5BD"/>
  
  <!-- Experience Item 2 -->
  <rect x="40" y="250" width="80" height="8" rx="1" fill="#333333"/>
  <rect x="40" y="262" width="120" height="6" rx="1" fill="#3498db"/>
  <rect x="200" y="262" width="60" height="6" rx="1" fill="#ADB5BD"/>
  <rect x="40" y="272" width="220" height="4" rx="1" fill="#ADB5BD"/>
  <rect x="40" y="280" width="180" height="4" rx="1" fill="#ADB5BD"/>
  
  <!-- Education Section -->
  <rect x="40" y="300" width="100" height="12" rx="2" fill="#2c3e50"/>
  
  <!-- Education Item -->
  <rect x="40" y="320" width="100" height="8" rx="1" fill="#333333"/>
  <rect x="40" y="332" width="120" height="6" rx="1" fill="#3498db"/>
  <rect x="200" y="332" width="60" height="6" rx="1" fill="#ADB5BD"/>
  <rect x="40" y="342" width="180" height="4" rx="1" fill="#ADB5BD"/>
</svg> 